<svg id="Layer_1" data-name="Layer 1" xmlns="http://www.w3.org/2000/svg" viewBox="0 0 250 80">
    <defs>
        <style>
            .cls-1{fill:#20a46b;}
            .cls-2{fill:#fff;}
            .cls-3{fill:#eebe1c;}
        </style>
    </defs>
    <title>Website &amp; Dashboard Header (250x80)</title>
    <path class="cls-1" d="M56.88,68c.2-1.14.36-2.08.53-3q1.8-9.66,3.6-19.31Q62.09,39.84,63.16,34c.42-2.28.87-4.54,1.27-6.82.1-.57.34-.81.91-.81,2.21,0,6.76.08,7,.16L72,29.27c.45-.32.71-.48,1-.67A12.54,12.54,0,0,1,83,26a11.67,11.67,0,0,1,8.1,4.66,12.81,12.81,0,0,1,2.51,6.51A20,20,0,0,1,90.3,50.89a15.21,15.21,0,0,1-10.12,6.59,12.35,12.35,0,0,1-9.24-1.58,19.88,19.88,0,0,1-2.11-1.8c-.22-.2-.42-.42-.79-.78-.94,5-1.84,9.84-2.74,14.68ZM77.61,50.23a7.45,7.45,0,0,0,5-2.76A10.77,10.77,0,0,0,85,38.19a5.77,5.77,0,0,0-5-5,7.73,7.73,0,0,0-7,2.32,11,11,0,0,0-3,8.43C70.12,47.78,72.83,50.24,77.61,50.23Z"/>
    <path class="cls-1" d="M20.87,49.46H41.26c0,.47,0,.81-.1,1.14-.34,1.93-.71,3.85-1,5.79-.09.56-.37.69-.86.68H8c0-.36.67-4.32,1-6a2.58,2.58,0,0,1,.69-1.4q6-6.45,12-12.92L32.35,25.22c.21-.23.38-.49.59-.75-.4-.44-.85-.3-1.25-.3-5.35,0-10.71,0-16.06,0H13.91c.08-.51.12-.88.19-1.25.35-1.82.69-3.64,1.05-5.45.16-.84.18-.83,1-.86H41.57c1.17,0,2.35,0,3.53.08.3,0,.61.08,1,.13-.16,1-.31,1.83-.46,2.7s-.33,1.6-.46,2.41a3.49,3.49,0,0,1-1,1.94Q37.58,30.92,31,38q-4.87,5.25-9.76,10.51a7.89,7.89,0,0,0-.49.65Z"/>
    <path class="cls-2" d="M96.22,52.83c1.08-2.4,2.12-4.7,3.18-7,.78.5,1.48,1,2.21,1.41a20.21,20.21,0,0,0,12.18,2.88,7.58,7.58,0,0,0,3.82-1.26,3.37,3.37,0,0,0,.23-5.55,8.82,8.82,0,0,0-2.64-1.36c-2.27-.71-4.61-1.22-6.88-1.93a33.88,33.88,0,0,1-5.39-2c-4.76-2.43-6.35-6.4-5.66-11.38a11.18,11.18,0,0,1,6.66-8.83,20,20,0,0,1,7.64-1.86,27,27,0,0,1,11.54,1.7c1.25.49,2.43,1.16,3.75,1.79-1,2.52-2,4.92-3,7.34a22.3,22.3,0,0,0-7.11-2.87,14.1,14.1,0,0,0-7,.09,7.71,7.71,0,0,0-1.93.89,3.44,3.44,0,0,0,.18,6.11,14.12,14.12,0,0,0,3.08,1.18c2.6.76,5.22,1.41,7.82,2.16a16.12,16.12,0,0,1,5.11,2.38,9.57,9.57,0,0,1,4.13,7.5,12.59,12.59,0,0,1-1,6.06,12.14,12.14,0,0,1-6.52,6,18.31,18.31,0,0,1-6.21,1.47,29.09,29.09,0,0,1-13.22-1.9A19.48,19.48,0,0,1,96.22,52.83Z"/>
    <path class="cls-2" d="M160.36,52.5a12.93,12.93,0,0,1-5.44,4,18.81,18.81,0,0,1-8.82,1.2A17.81,17.81,0,0,1,139,55.59a14.61,14.61,0,0,1-7.76-11.26,17.22,17.22,0,0,1,.67-8.34c2-5.71,6.1-9,12-10a16.48,16.48,0,0,1,9.34.9A14.14,14.14,0,0,1,162,37.53a15.22,15.22,0,0,1,.12,6.56H139.85a6.19,6.19,0,0,0,1.36,3.19,8.2,8.2,0,0,0,6.13,3,10.15,10.15,0,0,0,8-2.71l.26-.2s.06,0,.16,0Zm-6.49-13.77A6.75,6.75,0,0,0,147,32.55a7,7,0,0,0-7.18,6.18Z"/>
    <path class="cls-2" d="M218.86,57.11H209c1.87-2.77,3.81-5.34,5.67-8s3.71-5.24,5.61-7.91l-10.76-15c.41,0,.67-.09.93-.09,2.68,0,5.35,0,8,0a1.53,1.53,0,0,1,1.48.77c1.63,2.44,3.3,4.84,5,7.25.18.26.37.5.61.82l1.65-2.34c1.37-1.95,2.76-3.89,4.12-5.86a1.23,1.23,0,0,1,1.13-.63c2.79,0,5.57,0,8.35,0,.1,0,.2,0,.49.07-3.53,5-7.18,9.81-10.7,14.78l11.49,16h-10l-6.66-9.51Z"/>
    <path class="cls-2" d="M190.81,57.1h-8.57V14.36c2.83,0,5.66,0,8.49,0C191,15.11,191.05,55.53,190.81,57.1Z"/>
    <path class="cls-2" d="M167.18,14.38h8.38c.23.76.31,41.33.08,42.7h-8.4C167,56.36,166.93,15.87,167.18,14.38Z"/>
    <path class="cls-2" d="M197.43,26.21h8.62V57.08h-8.62Z"/>
    <path class="cls-1" d="M52.55,57H44.13c.08-.58.13-1.1.22-1.61q1.71-9.34,3.43-18.69c.57-3.08,1.13-6.17,1.7-9.25.19-1,.27-1.13,1.3-1.14H57c.34,0,.68.07,1.12.11C56.25,36.7,54.4,46.84,52.55,57Z"/>
    <path class="cls-1" d="M55.26,22a4.53,4.53,0,0,1-4.68-3.15,5.48,5.48,0,0,1,8.15-6,4,4,0,0,1,2,3.22A5.2,5.2,0,0,1,55.26,22Z"/>
    <circle class="cls-3" cx="201.49" cy="16.97" r="4.88"/>
</svg>
